<?xml version="1.0" encoding="UTF-8"?>
<svg id="Layer_1" xmlns="http://www.w3.org/2000/svg" version="1.1" viewBox="0 0 96 96">
  <!-- Generator: Adobe Illustrator 30.3.0, SVG Export Plug-In . SVG Version: 2.1.3 Build 182)  -->
  <defs>
    <style>
      .st0 {
        fill: #f04e27;
      }

      .st1 {
        fill: #f1c226;
      }

      .st2 {
        fill: #4c64a9;
      }

      .st3 {
        fill: #fff5ec;
      }
    </style>
  </defs>
  <rect class="st3" width="96" height="96" transform="translate(0 96) rotate(-90)"/>
  <g>
    <path class="st2" d="M19.61,62.19v28.39h28.39c0-15.68-12.71-28.39-28.39-28.39Z"/>
    <path class="st0" d="M76.39,62.19c-15.68,0-28.39,12.71-28.39,28.39h28.39v-28.39Z"/>
    <path class="st2" d="M48,33.81v28.39s28.39,0,28.39,0c0-15.68-12.71-28.39-28.39-28.39Z"/>
    <path class="st0" d="M48,5.42c-15.68,0-28.39,12.71-28.39,28.39h28.39V5.42Z"/>
    <path class="st1" d="M19.61,33.81v28.39s28.39,0,28.39,0c0-15.68-12.71-28.39-28.39-28.39Z"/>
    <path class="st1" d="M48,5.42v28.39h28.39c0-15.68-12.71-28.39-28.39-28.39Z"/>
  </g>
</svg>